<svg width="16" height="16" viewBox="0 0 16 16" fill="none" xmlns="http://www.w3.org/2000/svg">
<path d="M3.33332 7.33329V5.99996H4.66666V7.33329H5.99999V5.99996H7.33332V4.66663H5.99999V3.33329H7.33332V1.99996H2.66666C2.29866 1.99996 1.99999 2.29863 1.99999 2.66663V7.33329H3.33332ZM3.33332 3.33329H4.66666V4.66663H3.33332V3.33329ZM14.6667 0.666626H9.33332C8.96532 0.666626 8.66666 0.965293 8.66666 1.33329V15.3333H15.3333V1.33329C15.3333 0.965293 15.0347 0.666626 14.6667 0.666626ZM14 3.33329H12.6667V1.99996H14V3.33329ZM11.3333 3.33329H9.99999V1.99996H11.3333V3.33329ZM14 5.99996H12.6667V4.66663H14V5.99996ZM11.3333 5.99996H9.99999V4.66663H11.3333V5.99996ZM14 8.66663H12.6667V7.33329H14V8.66663ZM11.3333 8.66663H9.99999V7.33329H11.3333V8.66663ZM14 11.3333H12.6667V9.99996H14V11.3333ZM11.3333 11.3333H9.99999V9.99996H11.3333V11.3333ZM14 14H12.6667V12.6666H14V14ZM11.3333 14H9.99999V12.6666H11.3333V14ZM6.66666 8.66663H1.33332C0.965323 8.66663 0.666656 8.96529 0.666656 9.33329V15.3333H7.33332V9.33329C7.33332 8.96529 7.03466 8.66663 6.66666 8.66663ZM3.33332 14H1.99999V12.6666H3.33332V14ZM3.33332 11.3333H1.99999V9.99996H3.33332V11.3333ZM5.99999 14H4.66666V12.6666H5.99999V14ZM5.99999 11.3333H4.66666V9.99996H5.99999V11.3333Z" fill="#1F687E"/>
</svg>
