<svg width="12" height="16" viewBox="0 0 12 16" fill="none" xmlns="http://www.w3.org/2000/svg">
<path d="M4.20256 0.666626C3.87183 0.666626 3.60341 0.940404 3.60341 1.27774H2.40512C2.32573 1.27659 2.2469 1.29155 2.17322 1.32175C2.09955 1.35195 2.03249 1.39678 1.97595 1.45364C1.91941 1.5105 1.87451 1.57826 1.84387 1.65297C1.81322 1.72768 1.79744 1.80786 1.79744 1.88885C1.79744 1.96984 1.81322 2.05002 1.84387 2.12473C1.87451 2.19944 1.91941 2.2672 1.97595 2.32406C2.03249 2.38092 2.09955 2.42575 2.17322 2.45595C2.2469 2.48614 2.32573 2.5011 2.40512 2.49996H9.59488C9.67427 2.5011 9.7531 2.48614 9.82678 2.45595C9.90045 2.42575 9.96751 2.38092 10.0241 2.32406C10.0806 2.2672 10.1255 2.19944 10.1561 2.12473C10.1868 2.05002 10.2026 1.96984 10.2026 1.88885C10.2026 1.80786 10.1868 1.72768 10.1561 1.65297C10.1255 1.57826 10.0806 1.5105 10.0241 1.45364C9.96751 1.39678 9.90045 1.35195 9.82678 1.32175C9.7531 1.29155 9.67427 1.27659 9.59488 1.27774H8.39659C8.39659 0.940404 8.12817 0.666626 7.79744 0.666626H4.20256ZM0.60768 3.72218C0.528286 3.72104 0.449461 3.736 0.375785 3.76619C0.302109 3.79639 0.235051 3.84122 0.17851 3.89808C0.121969 3.95494 0.0770711 4.0227 0.0464261 4.09741C0.0157811 4.17212 0 4.25231 0 4.33329C0 4.41428 0.0157811 4.49446 0.0464261 4.56917C0.0770711 4.64389 0.121969 4.71164 0.17851 4.7685C0.235051 4.82536 0.302109 4.87019 0.375785 4.90039C0.449461 4.93059 0.528286 4.94555 0.60768 4.9444V11.6666C0.276951 11.6666 0.00853344 11.9404 0.00853344 12.2777V15.3333H0.60768H1.80597H4.20256V12.8888H7.79744V15.3333H10.194H11.3923H11.9915V12.2777C11.9915 11.9404 11.723 11.6666 11.3923 11.6666V4.9444C11.4717 4.94555 11.5505 4.93059 11.6242 4.90039C11.6979 4.87019 11.7649 4.82536 11.8215 4.7685C11.878 4.71164 11.9229 4.64389 11.9536 4.56917C11.9842 4.49446 12 4.41428 12 4.33329C12 4.25231 11.9842 4.17212 11.9536 4.09741C11.9229 4.0227 11.878 3.95494 11.8215 3.89808C11.7649 3.84122 11.6979 3.79639 11.6242 3.76619C11.5505 3.736 11.4717 3.72104 11.3923 3.72218H0.60768ZM1.80597 5.55551H3.00427V6.77774H1.80597V5.55551ZM4.20256 5.55551H5.40085V6.77774H4.20256V5.55551ZM6.59915 5.55551H7.79744V6.77774H6.59915V5.55551ZM8.99573 5.55551H10.194V6.77774H8.99573V5.55551ZM1.80597 7.99996H3.00427V9.22218H1.80597V7.99996ZM4.20256 7.99996H5.40085V9.22218H4.20256V7.99996ZM6.59915 7.99996H7.79744V9.22218H6.59915V7.99996ZM8.99573 7.99996H10.194V9.22218H8.99573V7.99996ZM1.80597 10.4444H3.00427V11.6666H1.80597V10.4444ZM4.20256 10.4444H5.40085V11.6666H4.20256V10.4444ZM6.59915 10.4444H7.79744V11.6666H6.59915V10.4444ZM8.99573 10.4444H10.194V11.6666H8.99573V10.4444ZM1.80597 12.8888H3.00427V14.1111H1.80597V12.8888ZM8.99573 12.8888H10.194V14.1111H8.99573V12.8888Z" fill="#1F687E"/>
</svg>
