<svg width="16" height="14" viewBox="0 0 16 14" fill="none" xmlns="http://www.w3.org/2000/svg">
<path d="M4 0.333374C1.79067 0.333374 0 2.12404 0 4.33337V12.3334C0 13.07 0.596667 13.6667 1.33333 13.6667H4H8H14.6667C15.3954 13.6667 16 13.0621 16 12.3334V4.33337C16 2.13229 14.2011 0.333374 12 0.333374H4ZM6.97526 1.66671H12C13.4803 1.66671 14.6667 2.85312 14.6667 4.33337V12.3334H8V4.33337C8 3.30719 7.61041 2.37476 6.97526 1.66671ZM10.6667 3.00004C10.313 3.00004 9.97391 3.14052 9.72386 3.39057C9.47381 3.64061 9.33333 3.97975 9.33333 4.33337C9.33333 4.687 9.47381 5.02613 9.72386 5.27618C9.97391 5.52623 10.313 5.66671 10.6667 5.66671V10.3334H12H13.3333V7.66671H12V4.33337C12 3.97975 11.8595 3.64061 11.6095 3.39057C11.3594 3.14052 11.0203 3.00004 10.6667 3.00004ZM2.66667 4.33337H5.33333C5.70133 4.33337 6 4.63204 6 5.00004C6 5.36804 5.70133 5.66671 5.33333 5.66671H2.66667C2.29867 5.66671 2 5.36804 2 5.00004C2 4.63204 2.29867 4.33337 2.66667 4.33337Z" fill="#1F687E"/>
</svg>
