<svg width="14" height="16" viewBox="0 0 14 16" fill="none" xmlns="http://www.w3.org/2000/svg">
<path d="M7.00031 0C3.39938 0 0.480103 2.91928 0.480103 6.52021C0.480103 10.8081 4.71942 12.8608 5.25053 13.3386C5.79289 13.8264 6.241 14.92 6.42179 15.54C6.50952 15.8411 6.7561 15.9935 7.00031 16C7.24512 15.9929 7.49111 15.8406 7.57883 15.54C7.75962 14.92 8.20774 13.827 8.7501 13.3386C9.2812 12.8608 13.5205 10.8081 13.5205 6.52021C13.5205 2.91928 10.6012 0 7.00031 0ZM7.00031 8.29845C6.01813 8.29845 5.22207 7.50239 5.22207 6.52021C5.22207 5.53803 6.01813 4.74197 7.00031 4.74197C7.98249 4.74197 8.77855 5.53803 8.77855 6.52021C8.77855 7.50239 7.98249 8.29845 7.00031 8.29845Z" fill="#1F687E"/>
</svg>
