<svg width="18" height="18" viewBox="0 0 18 18" fill="none" xmlns="http://www.w3.org/2000/svg">
<path d="M18 9C18 4.02975 13.9702 0 9 0C4.02975 0 0 4.02975 0 9C0 13.9702 4.02975 18 9 18C13.9702 18 18 13.9702 18 9ZM8.46975 13.2803L5.46975 10.2803C5.3235 10.134 5.25 9.942 5.25 9.75C5.25 9.558 5.3235 9.366 5.46975 9.21975C5.763 8.9265 6.237 8.9265 6.53025 9.21975L8.25 10.9395V5.25C8.25 4.836 8.58525 4.5 9 4.5C9.41475 4.5 9.75 4.836 9.75 5.25V10.9395L11.4698 9.21975C11.763 8.9265 12.237 8.9265 12.5302 9.21975C12.8235 9.513 12.8235 9.987 12.5302 10.2803L9.53025 13.2803C9.237 13.5735 8.763 13.5735 8.46975 13.2803Z" fill="#1F687E"/>
</svg>
