<svg width="16" height="16" viewBox="0 0 16 16" fill="none" xmlns="http://www.w3.org/2000/svg">
<path d="M8 16C12.418 16 16 12.418 16 8C16 3.582 12.418 0 8 0C3.582 0 0 3.582 0 8C0 12.418 3.582 16 8 16ZM4.19533 7.52867L6.862 4.862C6.992 4.732 7.16267 4.66667 7.33333 4.66667C7.504 4.66667 7.67467 4.732 7.80467 4.862C8.06533 5.12267 8.06533 5.544 7.80467 5.80467L6.276 7.33333H11.3333C11.7013 7.33333 12 7.63133 12 8C12 8.36867 11.7013 8.66667 11.3333 8.66667H6.276L7.80467 10.1953C8.06533 10.456 8.06533 10.8773 7.80467 11.138C7.544 11.3987 7.12267 11.3987 6.862 11.138L4.19533 8.47133C3.93467 8.21067 3.93467 7.78933 4.19533 7.52867Z" fill="#1F687E"/>
</svg>
