<svg width="20" height="20" viewBox="0 0 20 20" fill="none" xmlns="http://www.w3.org/2000/svg">
<path d="M10 0C4.4775 0 0 4.4775 0 10C0 15.5225 4.4775 20 10 20C15.5225 20 20 15.5225 20 10C20 4.4775 15.5225 0 10 0ZM14.7558 10.5892L11.4225 13.9225C11.26 14.085 11.0467 14.1667 10.8333 14.1667C10.62 14.1667 10.4067 14.085 10.2442 13.9225C9.91833 13.5967 9.91833 13.07 10.2442 12.7442L12.155 10.8333H5.83333C5.37333 10.8333 5 10.4608 5 10C5 9.53917 5.37333 9.16667 5.83333 9.16667H12.155L10.2442 7.25583C9.91833 6.93 9.91833 6.40333 10.2442 6.0775C10.57 5.75167 11.0967 5.75167 11.4225 6.0775L14.7558 9.41083C15.0817 9.73667 15.0817 10.2633 14.7558 10.5892Z" fill="#1F687E"/>
</svg>
