<svg width="172" height="22" viewBox="0 0 172 22" fill="none" xmlns="http://www.w3.org/2000/svg">
<path d="M66.2094 6.81407C66.8984 5.49192 68.2656 4.66272 69.7565 4.66272H74.6958C76.1973 4.66272 77.1633 6.25555 76.4694 7.58704L70.1354 19.7408C69.4463 21.0629 68.0791 21.8921 66.5882 21.8921H61.6489C60.1475 21.8921 59.1814 20.2993 59.8754 18.9678L66.2094 6.81407Z" fill="white" fill-opacity="0.75"/>
<path d="M72.9437 2.85979C73.6328 1.53763 75 0.708435 76.4909 0.708435H83.079C83.8297 0.708435 84.3127 1.50485 83.9658 2.1706L76.8697 15.7865C76.1807 17.1086 74.8135 17.9378 73.3226 17.9378H66.7345C65.9838 17.9378 65.5008 17.1414 65.8477 16.4757L72.9437 2.85979Z" fill="#FFC5AE"/>
<path d="M83.7456 15.5059C83.7456 14.4552 84.0823 13.6163 84.7558 12.9893C85.4292 12.3453 86.3215 11.9471 87.4327 11.7946L90.7157 11.3116C91.3387 11.2268 91.6501 10.9218 91.6501 10.3964C91.6501 9.75244 91.4313 9.22709 90.9935 8.82036C90.5558 8.41364 89.8992 8.21027 89.0237 8.21027C88.2156 8.21027 87.5758 8.43906 87.1044 8.89662C86.633 9.33724 86.3552 9.93039 86.271 10.6761L83.9981 10.1422C84.116 8.97289 84.6463 8.02386 85.5892 7.29514C86.532 6.54947 87.66 6.17664 88.9732 6.17664C90.6905 6.17664 91.9616 6.60031 92.7866 7.44766C93.6116 8.27806 94.024 9.34572 94.024 10.6506V16.7769C94.024 17.5057 94.0745 18.1751 94.1756 18.7852H91.8522C91.768 18.2768 91.7259 17.726 91.7259 17.1328C91.3892 17.6751 90.8925 18.1497 90.2359 18.5564C89.5961 18.9631 88.788 19.1665 87.8115 19.1665C86.6162 19.1665 85.6397 18.8106 84.882 18.0988C84.1244 17.3701 83.7456 16.5058 83.7456 15.5059ZM88.1398 17.1583C89.2005 17.1583 90.0507 16.8702 90.6905 16.294C91.3303 15.7178 91.6501 14.8026 91.6501 13.5486V12.9893L87.9378 13.5486C87.399 13.6333 86.9697 13.8282 86.6498 14.1332C86.3299 14.4383 86.17 14.8535 86.17 15.3788C86.17 15.8533 86.3468 16.2685 86.7003 16.6244C87.0707 16.9803 87.5506 17.1583 88.1398 17.1583Z" fill="white" fill-opacity="0.75"/>
<path d="M104.724 17.3108C104.404 17.9209 103.915 18.3869 103.259 18.7089C102.602 19.0139 101.895 19.1665 101.137 19.1665C99.7569 19.1665 98.6541 18.7089 97.8291 17.7938C97.0042 16.8617 96.5917 15.6839 96.5917 14.2603V6.55795H98.9656V13.9044C98.9656 14.8196 99.1844 15.5737 99.6222 16.1669C100.077 16.76 100.775 17.0566 101.718 17.0566C102.661 17.0566 103.377 16.7769 103.865 16.2177C104.353 15.6415 104.597 14.8789 104.597 13.9299V6.55795H106.971V16.5227C106.971 17.3193 107.013 18.0734 107.097 18.7852H104.825C104.757 18.4123 104.724 17.9209 104.724 17.3108Z" fill="white" fill-opacity="0.75"/>
<path d="M115.242 8.38822C114.215 8.38822 113.34 8.76105 112.616 9.50671C111.909 10.2524 111.555 11.3031 111.555 12.6588C111.555 13.9977 111.909 15.0484 112.616 15.811C113.34 16.5736 114.224 16.9549 115.268 16.9549C116.278 16.9549 117.044 16.7007 117.566 16.1923C118.105 15.6839 118.467 15.0992 118.652 14.4383L120.748 15.3534C120.411 16.3702 119.771 17.2599 118.829 18.0226C117.903 18.7852 116.716 19.1665 115.268 19.1665C113.5 19.1665 112.035 18.5479 110.873 17.3108C109.712 16.0737 109.131 14.523 109.131 12.6588C109.131 10.7608 109.712 9.21014 110.873 8.00691C112.035 6.78673 113.491 6.17664 115.242 6.17664C116.724 6.17664 117.919 6.55795 118.829 7.32056C119.755 8.08317 120.361 8.99831 120.647 10.066L118.5 10.9811C118.315 10.2693 117.961 9.65924 117.44 9.15083C116.918 8.64242 116.185 8.38822 115.242 8.38822Z" fill="white" fill-opacity="0.75"/>
<path d="M125.957 2.69405V6.55795H128.584V8.71868H125.957V15.0738C125.957 15.65 126.083 16.0737 126.336 16.3448C126.605 16.616 127.043 16.7515 127.649 16.7515C128.003 16.7515 128.314 16.7176 128.584 16.6498V18.6835C128.179 18.836 127.641 18.9123 126.967 18.9123C125.923 18.9123 125.098 18.6072 124.492 17.9971C123.886 17.387 123.583 16.5312 123.583 15.4297V8.71868H121.26V6.55795H121.916C122.539 6.55795 123.002 6.38848 123.305 6.04954C123.625 5.69365 123.785 5.23609 123.785 4.67684V2.69405H125.957Z" fill="white" fill-opacity="0.75"/>
<path d="M133.343 18.7852H130.995V6.55795H133.343V18.7852ZM130.944 4.28141C130.624 3.94247 130.464 3.53574 130.464 3.06123C130.464 2.58671 130.624 2.17999 130.944 1.84105C131.281 1.50211 131.685 1.33264 132.156 1.33264C132.628 1.33264 133.032 1.50211 133.368 1.84105C133.705 2.16304 133.873 2.56977 133.873 3.06123C133.873 3.53574 133.705 3.94247 133.368 4.28141C133.032 4.6034 132.628 4.7644 132.156 4.7644C131.685 4.7644 131.281 4.6034 130.944 4.28141Z" fill="white" fill-opacity="0.75"/>
<path d="M139.125 15.8872C139.865 16.6498 140.766 17.0312 141.827 17.0312C142.887 17.0312 143.78 16.6498 144.504 15.8872C145.244 15.1077 145.615 14.0315 145.615 12.6588C145.615 11.3031 145.244 10.2439 144.504 9.48129C143.78 8.70173 142.887 8.31195 141.827 8.31195C140.766 8.31195 139.865 8.70173 139.125 9.48129C138.401 10.2439 138.039 11.3031 138.039 12.6588C138.039 14.0315 138.401 15.1077 139.125 15.8872ZM137.357 8.03233C138.535 6.7952 140.025 6.17664 141.827 6.17664C143.628 6.17664 145.11 6.7952 146.271 8.03233C147.45 9.25251 148.039 10.7947 148.039 12.6588C148.039 14.54 147.458 16.0991 146.297 17.3362C145.135 18.5564 143.645 19.1665 141.827 19.1665C140.008 19.1665 138.518 18.5564 137.357 17.3362C136.195 16.0991 135.614 14.54 135.614 12.6588C135.614 10.7947 136.195 9.25251 137.357 8.03233Z" fill="white" fill-opacity="0.75"/>
<path d="M152.693 11.7183V18.7852H150.319V6.55795H152.642V8.31195C153.45 6.90536 154.696 6.20206 156.38 6.20206C157.777 6.20206 158.846 6.65115 159.587 7.54934C160.345 8.44753 160.724 9.6084 160.724 11.0319V18.7852H158.35V11.4387C158.35 9.38809 157.407 8.3628 155.521 8.3628C154.629 8.3628 153.93 8.68479 153.425 9.32877C152.937 9.95581 152.693 10.7523 152.693 11.7183Z" fill="white" fill-opacity="0.75"/>
<path d="M162.606 15.6076L164.752 14.845C164.836 15.5059 165.123 16.0567 165.611 16.4973C166.099 16.921 166.756 17.1328 167.581 17.1328C168.22 17.1328 168.726 16.9803 169.096 16.6753C169.466 16.3533 169.651 15.9635 169.651 15.5059C169.651 14.6925 169.13 14.1671 168.086 13.9299L166.015 13.4723C165.072 13.2689 164.331 12.8622 163.793 12.2521C163.254 11.642 162.984 10.9048 162.984 10.0405C162.984 8.98983 163.405 8.08317 164.247 7.32056C165.106 6.55795 166.124 6.17664 167.303 6.17664C168.077 6.17664 168.768 6.29527 169.374 6.53253C169.98 6.75284 170.451 7.04941 170.788 7.42224C171.125 7.79507 171.377 8.14249 171.546 8.46448C171.714 8.78647 171.84 9.11693 171.924 9.45587L169.828 10.2439C169.795 10.0405 169.736 9.84565 169.651 9.65924C169.567 9.45587 169.433 9.23556 169.247 8.99831C169.079 8.76105 168.827 8.57463 168.49 8.43906C168.153 8.28653 167.757 8.21027 167.303 8.21027C166.714 8.21027 166.225 8.37127 165.838 8.69326C165.468 9.01525 165.283 9.39656 165.283 9.83718C165.283 10.6167 165.746 11.1082 166.672 11.3116L168.641 11.7437C169.719 11.981 170.544 12.4216 171.116 13.0656C171.705 13.6926 172 14.4637 172 15.3788C172 16.3448 171.604 17.2176 170.813 17.9971C170.039 18.7767 168.953 19.1665 167.555 19.1665C166.057 19.1665 164.887 18.7936 164.045 18.048C163.203 17.2854 162.723 16.4719 162.606 15.6076Z" fill="white" fill-opacity="0.75"/>
<path d="M0 15.9946C0 14.9439 0.336722 14.105 1.01017 13.478C1.70044 12.834 2.60118 12.4273 3.71236 12.2578L6.86912 11.7748C7.47522 11.6901 7.77827 11.3935 7.77827 10.8851C7.77827 10.3259 7.58466 9.87676 7.19743 9.53782C6.8102 9.18193 6.22935 9.00399 5.45489 9.00399C4.7141 9.00399 4.12484 9.21583 3.6871 9.6395C3.24936 10.0462 2.99682 10.5801 2.92948 11.241L0.252541 10.6309C0.370394 9.5124 0.900731 8.56337 1.84355 7.78381C2.78637 6.9873 3.98173 6.58905 5.42964 6.58905C7.21426 6.58905 8.52748 7.0212 9.36928 7.88549C10.2279 8.74979 10.6572 9.85981 10.6572 11.2156V17.3673C10.6572 18.1808 10.7078 18.8417 10.8088 19.3501H8.08132C7.99714 19.0959 7.95505 18.5705 7.95505 17.774C7.14692 19.0789 5.88421 19.7314 4.16693 19.7314C2.92106 19.7314 1.9109 19.367 1.13644 18.6383C0.378812 17.8927 0 17.0114 0 15.9946ZM4.72252 17.4181C5.63167 17.4181 6.36404 17.1724 6.91963 16.681C7.49206 16.1725 7.77827 15.3506 7.77827 14.2152V13.6559L4.571 14.1389C3.47665 14.3253 2.92948 14.8846 2.92948 15.8167C2.92948 16.2573 3.08942 16.6386 3.40931 16.9606C3.72919 17.2656 4.16693 17.4181 4.72252 17.4181Z" fill="white" fill-opacity="0.75"/>
<path d="M12.355 15.9946L14.9057 15.2828C14.9562 15.876 15.2003 16.3759 15.638 16.7826C16.0758 17.1894 16.665 17.3927 17.4058 17.3927C17.9782 17.3927 18.4244 17.2571 18.7443 16.986C19.081 16.7148 19.2494 16.3759 19.2494 15.9692C19.2494 15.2574 18.7695 14.7998 17.8099 14.5965L15.9916 14.1898C14.9309 13.9525 14.1144 13.5119 13.5419 12.8679C12.9695 12.2239 12.6833 11.4613 12.6833 10.5801C12.6833 9.49545 13.121 8.56337 13.9965 7.78381C14.872 6.9873 15.9411 6.58905 17.2038 6.58905C18.0119 6.58905 18.7274 6.70768 19.3504 6.94494C19.9733 7.18219 20.4531 7.49571 20.7899 7.88549C21.1434 8.25832 21.4128 8.62268 21.598 8.97857C21.7832 9.33446 21.9011 9.69034 21.9516 10.0462L19.4767 10.758C19.4093 10.2835 19.1904 9.85981 18.82 9.48698C18.4665 9.0972 17.9277 8.90231 17.2038 8.90231C16.6987 8.90231 16.2778 9.04636 15.9411 9.33445C15.6044 9.60561 15.436 9.93607 15.436 10.3259C15.436 11.0207 15.8485 11.4528 16.6734 11.6223L18.5423 12.0036C19.6871 12.2578 20.5626 12.7154 21.1687 13.3763C21.7748 14.0372 22.0778 14.8337 22.0778 15.7658C22.0778 16.7996 21.6653 17.7232 20.8404 18.5366C20.0322 19.3331 18.8958 19.7314 17.4311 19.7314C16.5893 19.7314 15.8316 19.6043 15.1582 19.3501C14.5016 19.0959 13.9797 18.7739 13.5924 18.3841C13.222 17.9774 12.9274 17.5791 12.7085 17.1894C12.5065 16.7826 12.3887 16.3844 12.355 15.9946Z" fill="white" fill-opacity="0.75"/>
<path d="M23.295 15.9946C23.295 14.9439 23.6317 14.105 24.3051 13.478C24.9954 12.834 25.8961 12.4273 27.0073 12.2578L30.1641 11.7748C30.7702 11.6901 31.0732 11.3935 31.0732 10.8851C31.0732 10.3259 30.8796 9.87676 30.4924 9.53782C30.1052 9.18193 29.5243 9.00399 28.7498 9.00399C28.0091 9.00399 27.4198 9.21583 26.9821 9.6395C26.5443 10.0462 26.2918 10.5801 26.2244 11.241L23.5475 10.6309C23.6654 9.5124 24.1957 8.56337 25.1385 7.78381C26.0813 6.9873 27.2767 6.58905 28.7246 6.58905C30.5092 6.58905 31.8224 7.0212 32.6642 7.88549C33.5229 8.74979 33.9522 9.85981 33.9522 11.2156V17.3673C33.9522 18.1808 34.0027 18.8417 34.1037 19.3501H31.3763C31.2921 19.0959 31.25 18.5705 31.25 17.774C30.4419 19.0789 29.1792 19.7314 27.4619 19.7314C26.216 19.7314 25.2059 19.367 24.4314 18.6383C23.6738 17.8927 23.295 17.0114 23.295 15.9946ZM28.0175 17.4181C28.9266 17.4181 29.659 17.1724 30.2146 16.681C30.787 16.1725 31.0732 15.3506 31.0732 14.2152V13.6559L27.866 14.1389C26.7716 14.3253 26.2244 14.8846 26.2244 15.8167C26.2244 16.2573 26.3844 16.6386 26.7043 16.9606C27.0242 17.2656 27.4619 17.4181 28.0175 17.4181Z" fill="white" fill-opacity="0.75"/>
<path d="M35.9289 15.9946C35.9289 14.9439 36.2656 14.105 36.9391 13.478C37.6294 12.834 38.5301 12.4273 39.6413 12.2578L42.798 11.7748C43.4041 11.6901 43.7072 11.3935 43.7072 10.8851C43.7072 10.3259 43.5136 9.87676 43.1264 9.53782C42.7391 9.18193 42.1583 9.00399 41.3838 9.00399C40.643 9.00399 40.0538 9.21583 39.616 9.6395C39.1783 10.0462 38.9258 10.5801 38.8584 11.241L36.1815 10.6309C36.2993 9.5124 36.8297 8.56337 37.7725 7.78381C38.7153 6.9873 39.9107 6.58905 41.3586 6.58905C43.1432 6.58905 44.4564 7.0212 45.2982 7.88549C46.1568 8.74979 46.5862 9.85981 46.5862 11.2156V17.3673C46.5862 18.1808 46.6367 18.8417 46.7377 19.3501H44.0102C43.9261 19.0959 43.884 18.5705 43.884 17.774C43.0758 19.0789 41.8131 19.7314 40.0959 19.7314C38.85 19.7314 37.8398 19.367 37.0654 18.6383C36.3077 17.8927 35.9289 17.0114 35.9289 15.9946ZM40.6514 17.4181C41.5606 17.4181 42.293 17.1724 42.8486 16.681C43.421 16.1725 43.7072 15.3506 43.7072 14.2152V13.6559L40.4999 14.1389C39.4056 14.3253 38.8584 14.8846 38.8584 15.8167C38.8584 16.2573 39.0183 16.6386 39.3382 16.9606C39.6581 17.2656 40.0959 17.4181 40.6514 17.4181Z" fill="white" fill-opacity="0.75"/>
<path d="M48.2839 15.9946L50.8346 15.2828C50.8851 15.876 51.1292 16.3759 51.567 16.7826C52.0047 17.1894 52.594 17.3927 53.3347 17.3927C53.9072 17.3927 54.3533 17.2571 54.6732 16.986C55.0099 16.7148 55.1783 16.3759 55.1783 15.9692C55.1783 15.2574 54.6985 14.7998 53.7388 14.5965L51.9205 14.1898C50.8598 13.9525 50.0433 13.5119 49.4709 12.8679C48.8984 12.2239 48.6122 11.4613 48.6122 10.5801C48.6122 9.49545 49.05 8.56337 49.9254 7.78381C50.8009 6.9873 51.87 6.58905 53.1327 6.58905C53.9408 6.58905 54.6564 6.70768 55.2793 6.94494C55.9022 7.18219 56.3821 7.49571 56.7188 7.88549C57.0724 8.25832 57.3417 8.62268 57.5269 8.97857C57.7121 9.33446 57.83 9.69034 57.8805 10.0462L55.4056 10.758C55.3382 10.2835 55.1194 9.85981 54.749 9.48698C54.3954 9.0972 53.8567 8.90231 53.1327 8.90231C52.6276 8.90231 52.2067 9.04636 51.87 9.33445C51.5333 9.60561 51.3649 9.93607 51.3649 10.3259C51.3649 11.0207 51.7774 11.4528 52.6024 11.6223L54.4712 12.0036C55.616 12.2578 56.4915 12.7154 57.0976 13.3763C57.7037 14.0372 58.0068 14.8337 58.0068 15.7658C58.0068 16.7996 57.5943 17.7232 56.7693 18.5366C55.9612 19.3331 54.8247 19.7314 53.36 19.7314C52.5182 19.7314 51.7606 19.6043 51.0871 19.3501C50.4305 19.0959 49.9086 18.7739 49.5214 18.3841C49.151 17.9774 48.8563 17.5791 48.6375 17.1894C48.4354 16.7826 48.3176 16.3844 48.2839 15.9946Z" fill="white" fill-opacity="0.75"/>
</svg>
