<svg width="180" height="22" viewBox="0 0 180 22" fill="none" xmlns="http://www.w3.org/2000/svg">
<path d="M69.2619 6.2485C69.9527 4.93163 71.317 4.10669 72.8041 4.10669H78.2244C79.7283 4.10669 80.6941 5.70407 79.9955 7.03579L73.269 19.8582C72.5782 21.1751 71.2139 22 69.7268 22H64.3064C62.8026 22 61.8368 20.4026 62.5354 19.0709L69.2619 6.2485Z" fill="#165366"/>
<path d="M76.3019 2.14181C76.9927 0.824944 78.357 0 79.8441 0H86.9183C87.6702 0 88.1532 0.798692 87.8039 1.46455L80.3091 15.7515C79.6182 17.0684 78.2539 17.8933 76.7669 17.8933H69.6927C68.9407 17.8933 68.4578 17.0946 68.8071 16.4288L76.3019 2.14181Z" fill="#FFC5AE"/>
<path d="M87.5454 15.3678C87.5454 14.2766 87.8974 13.4054 88.6014 12.7542C89.3054 12.0854 90.2382 11.6718 91.3998 11.5134L94.8318 11.0118C95.483 10.9238 95.8086 10.607 95.8086 10.0614C95.8086 9.39258 95.5798 8.84698 95.1222 8.42458C94.6646 8.00218 93.9782 7.79098 93.063 7.79098C92.2182 7.79098 91.5494 8.02858 91.0566 8.50378C90.5638 8.96138 90.2734 9.57738 90.1854 10.3518L87.8094 9.79738C87.9326 8.58298 88.487 7.59738 89.4726 6.84058C90.4582 6.06618 91.6374 5.67898 93.0102 5.67898C94.8054 5.67898 96.1342 6.11898 96.9966 6.99898C97.859 7.86138 98.2902 8.97018 98.2902 10.3254V16.6878C98.2902 17.4446 98.343 18.1398 98.4486 18.7734H96.0198C95.9318 18.2454 95.8878 17.6734 95.8878 17.0574C95.5358 17.6206 95.0166 18.1134 94.3302 18.5358C93.6614 18.9582 92.8166 19.1694 91.7958 19.1694C90.5462 19.1694 89.5254 18.7998 88.7334 18.0606C87.9414 17.3038 87.5454 16.4062 87.5454 15.3678ZM92.139 17.0838C93.2478 17.0838 94.1366 16.7846 94.8054 16.1862C95.4742 15.5878 95.8086 14.6374 95.8086 13.335V12.7542L91.9278 13.335C91.3646 13.423 90.9158 13.6254 90.5814 13.9422C90.247 14.259 90.0798 14.6902 90.0798 15.2358C90.0798 15.7286 90.2646 16.1598 90.6342 16.5294C91.0214 16.899 91.523 17.0838 92.139 17.0838Z" fill="#165366"/>
<path d="M109.475 17.2422C109.141 17.8758 108.63 18.3598 107.944 18.6942C107.258 19.011 106.518 19.1694 105.726 19.1694C104.283 19.1694 103.13 18.6942 102.268 17.7438C101.406 16.7758 100.974 15.5526 100.974 14.0742V6.07498H103.456V13.7046C103.456 14.655 103.685 15.4382 104.142 16.0542C104.618 16.6702 105.348 16.9782 106.334 16.9782C107.319 16.9782 108.067 16.6878 108.578 16.107C109.088 15.5086 109.343 14.7166 109.343 13.731V6.07498H111.825V16.4238C111.825 17.251 111.869 18.0342 111.957 18.7734H109.581C109.51 18.3862 109.475 17.8758 109.475 17.2422Z" fill="#165366"/>
<path d="M120.471 7.97578C119.398 7.97578 118.483 8.36298 117.726 9.13738C116.987 9.91178 116.617 11.003 116.617 12.411C116.617 13.8014 116.987 14.8926 117.726 15.6846C118.483 16.4766 119.407 16.8726 120.498 16.8726C121.554 16.8726 122.355 16.6086 122.9 16.0806C123.463 15.5526 123.842 14.9454 124.035 14.259L126.227 15.2094C125.875 16.2654 125.206 17.1894 124.22 17.9814C123.252 18.7734 122.011 19.1694 120.498 19.1694C118.65 19.1694 117.119 18.527 115.904 17.2422C114.69 15.9574 114.083 14.347 114.083 12.411C114.083 10.4398 114.69 8.82938 115.904 7.57978C117.119 6.31258 118.641 5.67898 120.471 5.67898C122.02 5.67898 123.27 6.07498 124.22 6.86698C125.188 7.65898 125.822 8.60938 126.121 9.71818L123.877 10.6686C123.683 9.92938 123.314 9.29578 122.768 8.76778C122.223 8.23978 121.457 7.97578 120.471 7.97578Z" fill="#165366"/>
<path d="M131.672 2.06218V6.07498H134.418V8.31898H131.672V14.919C131.672 15.5174 131.804 15.9574 132.068 16.239C132.35 16.5206 132.807 16.6614 133.441 16.6614C133.811 16.6614 134.136 16.6262 134.418 16.5558V18.6678C133.995 18.8262 133.432 18.9054 132.728 18.9054C131.637 18.9054 130.775 18.5886 130.141 17.955C129.507 17.3214 129.191 16.4326 129.191 15.2886V8.31898H126.762V6.07498H127.448C128.099 6.07498 128.583 5.89898 128.9 5.54698C129.235 5.17738 129.402 4.70218 129.402 4.12138V2.06218H131.672Z" fill="#165366"/>
<path d="M139.393 18.7734H136.938V6.07498H139.393V18.7734ZM136.885 3.71072C136.551 3.35871 136.384 2.93631 136.384 2.44351C136.384 1.95071 136.551 1.52831 136.885 1.17632C137.237 0.824316 137.66 0.648315 138.153 0.648315C138.645 0.648315 139.068 0.824316 139.42 1.17632C139.772 1.51072 139.948 1.93311 139.948 2.44351C139.948 2.93631 139.772 3.35871 139.42 3.71072C139.068 4.04512 138.645 4.21232 138.153 4.21232C137.66 4.21232 137.237 4.04512 136.885 3.71072Z" fill="#165366"/>
<path d="M145.437 15.7638C146.212 16.5558 147.153 16.9518 148.262 16.9518C149.371 16.9518 150.304 16.5558 151.06 15.7638C151.835 14.9542 152.222 13.8366 152.222 12.411C152.222 11.003 151.835 9.90298 151.06 9.11098C150.304 8.30138 149.371 7.89658 148.262 7.89658C147.153 7.89658 146.212 8.30138 145.437 9.11098C144.68 9.90298 144.302 11.003 144.302 12.411C144.302 13.8366 144.68 14.9542 145.437 15.7638ZM143.589 7.60618C144.821 6.32138 146.379 5.67898 148.262 5.67898C150.145 5.67898 151.694 6.32138 152.908 7.60618C154.14 8.87338 154.756 10.475 154.756 12.411C154.756 14.3646 154.149 15.9838 152.935 17.2686C151.72 18.5358 150.163 19.1694 148.262 19.1694C146.361 19.1694 144.804 18.5358 143.589 17.2686C142.375 15.9838 141.768 14.3646 141.768 12.411C141.768 10.475 142.375 8.87338 143.589 7.60618Z" fill="#165366"/>
<path d="M159.621 11.4342V18.7734H157.139V6.07498H159.568V7.89658C160.413 6.43578 161.715 5.70538 163.475 5.70538C164.936 5.70538 166.054 6.17178 166.828 7.10458C167.62 8.03738 168.016 9.24298 168.016 10.7214V18.7734H165.535V11.1438C165.535 9.01418 164.549 7.94938 162.578 7.94938C161.645 7.94938 160.915 8.28378 160.387 8.95258C159.876 9.60378 159.621 10.431 159.621 11.4342Z" fill="#165366"/>
<path d="M169.984 15.4734L172.228 14.6814C172.316 15.3678 172.615 15.9398 173.125 16.3974C173.636 16.8374 174.322 17.0574 175.184 17.0574C175.853 17.0574 176.381 16.899 176.768 16.5822C177.156 16.2478 177.349 15.843 177.349 15.3678C177.349 14.523 176.804 13.9774 175.712 13.731L173.548 13.2558C172.562 13.0446 171.788 12.6222 171.224 11.9886C170.661 11.355 170.38 10.5894 170.38 9.69178C170.38 8.60058 170.82 7.65898 171.7 6.86698C172.597 6.07498 173.662 5.67898 174.894 5.67898C175.704 5.67898 176.425 5.80218 177.059 6.04858C177.692 6.27738 178.185 6.58538 178.537 6.97258C178.889 7.35978 179.153 7.72058 179.329 8.05498C179.505 8.38938 179.637 8.73258 179.725 9.08458L177.534 9.90298C177.499 9.69178 177.437 9.48938 177.349 9.29578C177.261 9.08458 177.12 8.85578 176.927 8.60938C176.751 8.36298 176.487 8.16938 176.135 8.02858C175.783 7.87018 175.369 7.79098 174.894 7.79098C174.278 7.79098 173.768 7.95818 173.363 8.29258C172.976 8.62698 172.782 9.02298 172.782 9.48058C172.782 10.2902 173.266 10.8006 174.234 11.0118L176.293 11.4606C177.42 11.707 178.282 12.1646 178.88 12.8334C179.496 13.4846 179.804 14.2854 179.804 15.2358C179.804 16.239 179.391 17.1454 178.564 17.955C177.754 18.7646 176.619 19.1694 175.158 19.1694C173.592 19.1694 172.368 18.7822 171.488 18.0078C170.608 17.2158 170.107 16.371 169.984 15.4734Z" fill="#165366"/>
<path d="M0 15.8752C0 14.784 0.352 13.9128 1.056 13.2616C1.7776 12.5928 2.7192 12.1704 3.8808 11.9944L7.1808 11.4928C7.8144 11.4048 8.1312 11.0968 8.1312 10.5688C8.1312 9.98798 7.9288 9.52158 7.524 9.16958C7.1192 8.79998 6.512 8.61518 5.7024 8.61518C4.928 8.61518 4.312 8.83518 3.8544 9.27518C3.3968 9.69758 3.1328 10.252 3.0624 10.9384L0.264 10.3048C0.3872 9.14318 0.9416 8.15758 1.9272 7.34798C2.9128 6.52078 4.1624 6.10718 5.676 6.10718C7.5416 6.10718 8.9144 6.55598 9.7944 7.45358C10.692 8.35118 11.1408 9.50398 11.1408 10.912V17.3008C11.1408 18.1456 11.1936 18.832 11.2992 19.36H8.448C8.36 19.096 8.316 18.5504 8.316 17.7232C7.4712 19.0784 6.1512 19.756 4.356 19.756C3.0536 19.756 1.9976 19.3776 1.188 18.6208C0.396 17.8464 0 16.9312 0 15.8752ZM4.9368 17.3536C5.8872 17.3536 6.6528 17.0984 7.2336 16.588C7.832 16.06 8.1312 15.2064 8.1312 14.0272V13.4464L4.7784 13.948C3.6344 14.1416 3.0624 14.7224 3.0624 15.6904C3.0624 16.148 3.2296 16.544 3.564 16.8784C3.8984 17.1952 4.356 17.3536 4.9368 17.3536Z" fill="#165366"/>
<path d="M12.9156 15.8752L15.582 15.136C15.6348 15.752 15.89 16.2712 16.3476 16.6936C16.8052 17.116 17.4212 17.3272 18.1956 17.3272C18.794 17.3272 19.2604 17.1864 19.5948 16.9048C19.9468 16.6232 20.1228 16.2712 20.1228 15.8488C20.1228 15.1096 19.6212 14.6344 18.618 14.4232L16.7172 14.0008C15.6084 13.7544 14.7548 13.2968 14.1564 12.628C13.558 11.9592 13.2588 11.1672 13.2588 10.252C13.2588 9.12558 13.7164 8.15758 14.6316 7.34798C15.5468 6.52078 16.6644 6.10718 17.9844 6.10718C18.8292 6.10718 19.5772 6.23038 20.2284 6.47678C20.8796 6.72318 21.3812 7.04878 21.7332 7.45358C22.1028 7.84078 22.3844 8.21918 22.578 8.58878C22.7716 8.95838 22.8948 9.32798 22.9476 9.69758L20.3604 10.4368C20.29 9.94398 20.0612 9.50398 19.674 9.11678C19.3044 8.71198 18.7412 8.50958 17.9844 8.50958C17.4564 8.50958 17.0164 8.65918 16.6644 8.95838C16.3124 9.23998 16.1364 9.58318 16.1364 9.98798C16.1364 10.7096 16.5676 11.1584 17.43 11.3344L19.3836 11.7304C20.5804 11.9944 21.4956 12.4696 22.1292 13.156C22.7628 13.8424 23.0796 14.6696 23.0796 15.6376C23.0796 16.7112 22.6484 17.6704 21.786 18.5152C20.9412 19.3424 19.7532 19.756 18.222 19.756C17.342 19.756 16.55 19.624 15.846 19.36C15.1596 19.096 14.614 18.7616 14.2092 18.3568C13.822 17.9344 13.514 17.5208 13.2852 17.116C13.074 16.6936 12.9508 16.28 12.9156 15.8752Z" fill="#165366"/>
<path d="M24.3519 15.8752C24.3519 14.784 24.7039 13.9128 25.4079 13.2616C26.1295 12.5928 27.0711 12.1704 28.2327 11.9944L31.5327 11.4928C32.1663 11.4048 32.4831 11.0968 32.4831 10.5688C32.4831 9.98798 32.2807 9.52158 31.8759 9.16958C31.4711 8.79998 30.8639 8.61518 30.0543 8.61518C29.2799 8.61518 28.6639 8.83518 28.2063 9.27518C27.7487 9.69758 27.4847 10.252 27.4143 10.9384L24.6159 10.3048C24.7391 9.14318 25.2935 8.15758 26.2791 7.34798C27.2647 6.52078 28.5143 6.10718 30.0279 6.10718C31.8935 6.10718 33.2663 6.55598 34.1463 7.45358C35.0439 8.35118 35.4927 9.50398 35.4927 10.912V17.3008C35.4927 18.1456 35.5455 18.832 35.6511 19.36H32.7999C32.7119 19.096 32.6679 18.5504 32.6679 17.7232C31.8231 19.0784 30.5031 19.756 28.7079 19.756C27.4055 19.756 26.3495 19.3776 25.5399 18.6208C24.7479 17.8464 24.3519 16.9312 24.3519 15.8752ZM29.2887 17.3536C30.2391 17.3536 31.0047 17.0984 31.5855 16.588C32.1839 16.06 32.4831 15.2064 32.4831 14.0272V13.4464L29.1303 13.948C27.9863 14.1416 27.4143 14.7224 27.4143 15.6904C27.4143 16.148 27.5815 16.544 27.9159 16.8784C28.2503 17.1952 28.7079 17.3536 29.2887 17.3536Z" fill="#165366"/>
<path d="M37.5592 15.8752C37.5592 14.784 37.9112 13.9128 38.6152 13.2616C39.3368 12.5928 40.2784 12.1704 41.44 11.9944L44.74 11.4928C45.3736 11.4048 45.6904 11.0968 45.6904 10.5688C45.6904 9.98798 45.488 9.52158 45.0832 9.16958C44.6784 8.79998 44.0712 8.61518 43.2616 8.61518C42.4872 8.61518 41.8712 8.83518 41.4136 9.27518C40.956 9.69758 40.692 10.252 40.6216 10.9384L37.8232 10.3048C37.9464 9.14318 38.5008 8.15758 39.4864 7.34798C40.472 6.52078 41.7216 6.10718 43.2352 6.10718C45.1008 6.10718 46.4736 6.55598 47.3536 7.45358C48.2512 8.35118 48.7 9.50398 48.7 10.912V17.3008C48.7 18.1456 48.7528 18.832 48.8584 19.36H46.0072C45.9192 19.096 45.8752 18.5504 45.8752 17.7232C45.0304 19.0784 43.7104 19.756 41.9152 19.756C40.6128 19.756 39.5568 19.3776 38.7472 18.6208C37.9552 17.8464 37.5592 16.9312 37.5592 15.8752ZM42.496 17.3536C43.4464 17.3536 44.212 17.0984 44.7928 16.588C45.3912 16.06 45.6904 15.2064 45.6904 14.0272V13.4464L42.3376 13.948C41.1936 14.1416 40.6216 14.7224 40.6216 15.6904C40.6216 16.148 40.7888 16.544 41.1232 16.8784C41.4576 17.1952 41.9152 17.3536 42.496 17.3536Z" fill="#165366"/>
<path d="M50.4747 15.8752L53.1411 15.136C53.1939 15.752 53.4491 16.2712 53.9067 16.6936C54.3643 17.116 54.9803 17.3272 55.7547 17.3272C56.3531 17.3272 56.8195 17.1864 57.1539 16.9048C57.5059 16.6232 57.6819 16.2712 57.6819 15.8488C57.6819 15.1096 57.1803 14.6344 56.1771 14.4232L54.2763 14.0008C53.1675 13.7544 52.3139 13.2968 51.7155 12.628C51.1171 11.9592 50.8179 11.1672 50.8179 10.252C50.8179 9.12558 51.2755 8.15758 52.1907 7.34798C53.1059 6.52078 54.2235 6.10718 55.5435 6.10718C56.3883 6.10718 57.1363 6.23038 57.7875 6.47678C58.4387 6.72318 58.9403 7.04878 59.2923 7.45358C59.6619 7.84078 59.9435 8.21918 60.1371 8.58878C60.3307 8.95838 60.4539 9.32798 60.5067 9.69758L57.9195 10.4368C57.8491 9.94398 57.6203 9.50398 57.2331 9.11678C56.8635 8.71198 56.3003 8.50958 55.5435 8.50958C55.0155 8.50958 54.5755 8.65918 54.2235 8.95838C53.8715 9.23998 53.6955 9.58318 53.6955 9.98798C53.6955 10.7096 54.1267 11.1584 54.9891 11.3344L56.9427 11.7304C58.1395 11.9944 59.0547 12.4696 59.6883 13.156C60.3219 13.8424 60.6387 14.6696 60.6387 15.6376C60.6387 16.7112 60.2075 17.6704 59.3451 18.5152C58.5003 19.3424 57.3123 19.756 55.7811 19.756C54.9011 19.756 54.1091 19.624 53.4051 19.36C52.7187 19.096 52.1731 18.7616 51.7683 18.3568C51.3811 17.9344 51.0731 17.5208 50.8443 17.116C50.6331 16.6936 50.5099 16.28 50.4747 15.8752Z" fill="#165366"/>
</svg>
