<svg width="20" height="20" viewBox="0 0 20 20" fill="none" xmlns="http://www.w3.org/2000/svg">
<path fill-rule="evenodd" clip-rule="evenodd" d="M4 0C1.79086 0 0 1.79086 0 4V16C0 18.2091 1.79086 20 4 20H16C18.2091 20 20 18.2091 20 16V4C20 1.79086 18.2091 0 16 0H4ZM4.65512 9.74408C5.30639 9.09281 6.36069 9.09281 7.01196 9.74408L8.71104 11.4432L13.8326 6.32158C14.4839 5.67031 15.5382 5.67031 16.1895 6.32158C16.8407 6.97285 16.8407 8.02716 16.1895 8.67843L9.88946 14.9784C9.57647 15.2914 9.15282 15.4667 8.71104 15.4667C8.27094 15.4667 7.84556 15.2926 7.53191 14.9777L7.53105 14.9769L4.65512 12.1009C4.00385 11.4497 4.00385 10.3954 4.65512 9.74408Z" fill="#448FFF"/>
</svg>
