<svg width="16" height="16" viewBox="0 0 16 16" fill="none" xmlns="http://www.w3.org/2000/svg">
<path d="M7.33333 0C6.96533 0 6.66667 0.298667 6.66667 0.666667V1.46094C3.25932 2.09092 0.666668 5.08031 0.666668 8.66667C0.666668 12.7089 3.95773 16 8 16C12.0423 16 15.3333 12.7089 15.3333 8.66667C15.3333 5.08031 12.7407 2.09092 9.33333 1.46094V0.666667C9.33333 0.298667 9.03467 0 8.66667 0H7.33333ZM13.3268 1.32682C13.1942 1.32686 13.0646 1.36644 12.9546 1.44052C12.8446 1.5146 12.7592 1.6198 12.7093 1.74267C12.6594 1.86554 12.6472 2.00051 12.6744 2.13031C12.7016 2.26012 12.7669 2.37886 12.862 2.47135L13.5286 3.13802C13.5901 3.202 13.6637 3.25309 13.7451 3.28828C13.8265 3.32347 13.9141 3.34206 14.0028 3.34296C14.0915 3.34386 14.1795 3.32706 14.2616 3.29353C14.3437 3.26 14.4183 3.21043 14.481 3.14771C14.5438 3.08499 14.5933 3.01039 14.6269 2.92827C14.6604 2.84615 14.6772 2.75817 14.6763 2.66948C14.6754 2.58078 14.6568 2.49316 14.6216 2.41174C14.5864 2.33032 14.5353 2.25674 14.4714 2.19531L13.8047 1.52865C13.7426 1.46478 13.6683 1.41402 13.5862 1.37936C13.5041 1.34469 13.4159 1.32683 13.3268 1.32682V1.32682ZM8 2.66667C11.3217 2.66667 14 5.34494 14 8.66667C14 10.5165 13.1679 12.165 11.8581 13.2643L8 8.66667V2.66667Z" fill="#1F687E"/>
</svg>
