<svg width="16" height="16" viewBox="0 0 16 16" fill="none" xmlns="http://www.w3.org/2000/svg">
<path d="M7.33329 0C6.96529 0 6.66663 0.298667 6.66663 0.666667V1.46094C3.25928 2.09092 0.666626 5.08031 0.666626 8.66667C0.666626 12.7089 3.95769 16 7.99996 16C12.0422 16 15.3333 12.7089 15.3333 8.66667C15.3333 5.08031 12.7406 2.09092 9.33329 1.46094V0.666667C9.33329 0.298667 9.03463 0 8.66663 0H7.33329ZM13.3268 1.32682C13.1942 1.32686 13.0646 1.36644 12.9546 1.44052C12.8445 1.5146 12.7591 1.6198 12.7092 1.74267C12.6593 1.86554 12.6472 2.00051 12.6744 2.13031C12.7016 2.26011 12.7669 2.37886 12.8619 2.47135L13.5286 3.13802C13.59 3.202 13.6636 3.25309 13.745 3.28828C13.8265 3.32347 13.9141 3.34206 14.0028 3.34296C14.0915 3.34386 14.1794 3.32706 14.2616 3.29353C14.3437 3.26 14.4183 3.21043 14.481 3.14771C14.5437 3.08499 14.5933 3.01039 14.6268 2.92827C14.6603 2.84615 14.6772 2.75817 14.6762 2.66948C14.6753 2.58078 14.6568 2.49316 14.6216 2.41174C14.5864 2.33032 14.5353 2.25674 14.4713 2.19531L13.8046 1.52865C13.7425 1.46478 13.6682 1.41402 13.5861 1.37936C13.5041 1.34469 13.4159 1.32683 13.3268 1.32682ZM7.99996 2.66667C11.3217 2.66667 14 5.34494 14 8.66667C14 10.5165 13.1678 12.165 11.858 13.2643L7.99996 8.66667V2.66667Z" fill="#24997D"/>
</svg>
