<svg width="18" height="20" viewBox="0 0 18 20" fill="none" xmlns="http://www.w3.org/2000/svg">
<path d="M5.79995 0C4.91595 0 4.19995 0.716 4.19995 1.6V14.4C4.19995 15.284 4.91595 16 5.79995 16H16.2C17.084 16 17.8 15.284 17.8 14.4V5.2C17.8 4.988 17.716 4.78477 17.5656 4.63438L13.1656 0.234375C13.0152 0.0839749 12.812 0 12.6 0H5.79995ZM12.2 1.52344L16.2765 5.6H13C12.5584 5.6 12.2 5.2416 12.2 4.8V1.52344ZM1.79995 4C0.915951 4 0.199951 4.716 0.199951 5.6V18.4C0.199951 19.284 0.915951 20 1.79995 20H12.2C13.084 20 13.8 19.284 13.8 18.4V17.6H5.79995C4.03515 17.6 2.59995 16.1648 2.59995 14.4V4H1.79995Z" fill="#1F687E"/>
</svg>
