<svg width="20" height="20" viewBox="0 0 20 20" fill="none" xmlns="http://www.w3.org/2000/svg">
<path d="M18.1818 0H1.81818C0.813636 0 0 0.813636 0 1.81818V18.1818C0 19.1864 0.813636 20 1.81818 20H18.1818C19.1864 20 20 19.1864 20 18.1818V1.81818C20 0.813636 19.1864 0 18.1818 0ZM2.72727 17.2727C2.22545 17.2727 1.81818 16.8655 1.81818 16.3636C1.81818 15.8618 2.22545 15.4545 2.72727 15.4545C3.22909 15.4545 3.63636 15.8618 3.63636 16.3636C3.63636 16.8655 3.22909 17.2727 2.72727 17.2727ZM2.72727 13.6364C2.22545 13.6364 1.81818 13.2291 1.81818 12.7273C1.81818 12.2255 2.22545 11.8182 2.72727 11.8182C3.22909 11.8182 3.63636 12.2255 3.63636 12.7273C3.63636 13.2291 3.22909 13.6364 2.72727 13.6364ZM6.36364 17.2727C5.86182 17.2727 5.45455 16.8655 5.45455 16.3636C5.45455 15.8618 5.86182 15.4545 6.36364 15.4545C6.86545 15.4545 7.27273 15.8618 7.27273 16.3636C7.27273 16.8655 6.86545 17.2727 6.36364 17.2727ZM6.36364 13.6364C5.86182 13.6364 5.45455 13.2291 5.45455 12.7273C5.45455 12.2255 5.86182 11.8182 6.36364 11.8182C6.86545 11.8182 7.27273 12.2255 7.27273 12.7273C7.27273 13.2291 6.86545 13.6364 6.36364 13.6364ZM6.36364 10C5.86182 10 5.45455 9.59273 5.45455 9.09091C5.45455 8.58909 5.86182 8.18182 6.36364 8.18182C6.86545 8.18182 7.27273 8.58909 7.27273 9.09091C7.27273 9.59273 6.86545 10 6.36364 10ZM10 17.2727C9.49818 17.2727 9.09091 16.8655 9.09091 16.3636C9.09091 15.8618 9.49818 15.4545 10 15.4545C10.5018 15.4545 10.9091 15.8618 10.9091 16.3636C10.9091 16.8655 10.5018 17.2727 10 17.2727ZM10 13.6364C9.49818 13.6364 9.09091 13.2291 9.09091 12.7273C9.09091 12.2255 9.49818 11.8182 10 11.8182C10.5018 11.8182 10.9091 12.2255 10.9091 12.7273C10.9091 13.2291 10.5018 13.6364 10 13.6364ZM10 10C9.49818 10 9.09091 9.59273 9.09091 9.09091C9.09091 8.58909 9.49818 8.18182 10 8.18182C10.5018 8.18182 10.9091 8.58909 10.9091 9.09091C10.9091 9.59273 10.5018 10 10 10ZM13.6364 17.2727C13.1345 17.2727 12.7273 16.8655 12.7273 16.3636C12.7273 15.8618 13.1345 15.4545 13.6364 15.4545C14.1382 15.4545 14.5455 15.8618 14.5455 16.3636C14.5455 16.8655 14.1382 17.2727 13.6364 17.2727ZM13.6364 13.6364C13.1345 13.6364 12.7273 13.2291 12.7273 12.7273C12.7273 12.2255 13.1345 11.8182 13.6364 11.8182C14.1382 11.8182 14.5455 12.2255 14.5455 12.7273C14.5455 13.2291 14.1382 13.6364 13.6364 13.6364ZM12.7273 9.09091C12.7273 8.58909 13.1345 8.18182 13.6364 8.18182C14.1382 8.18182 14.5455 8.58909 14.5455 9.09091C14.5455 9.59273 14.1382 10 13.6364 10C13.1345 10 12.7273 9.59273 12.7273 9.09091ZM17.2727 13.6364C16.7709 13.6364 16.3636 13.2291 16.3636 12.7273C16.3636 12.2255 16.7709 11.8182 17.2727 11.8182C17.7745 11.8182 18.1818 12.2255 18.1818 12.7273C18.1818 13.2291 17.7745 13.6364 17.2727 13.6364ZM17.2727 10C16.7709 10 16.3636 9.59273 16.3636 9.09091C16.3636 8.58909 16.7709 8.18182 17.2727 8.18182C17.7745 8.18182 18.1818 8.58909 18.1818 9.09091C18.1818 9.59273 17.7745 10 17.2727 10ZM18.1818 5.45455H1.81818V1.81818H18.1818V5.45455Z" fill="#1F687E"/>
</svg>
