<svg width="44" height="44" viewBox="0 0 44 44" fill="none" xmlns="http://www.w3.org/2000/svg">
<path d="M22 0C9.8505 0 0 9.8505 0 22C0 34.1495 9.8505 44 22 44C34.1495 44 44 34.1495 44 22C44 9.8505 34.1495 0 22 0ZM24.5923 22C24.5923 22 30.3472 27.7548 30.6295 28.0372C31.3463 28.754 31.3463 29.9145 30.6295 30.6295C29.9127 31.3463 28.7522 31.3463 28.0372 30.6295C27.7548 30.349 22 24.5923 22 24.5923C22 24.5923 16.2452 30.3472 15.9628 30.6295C15.246 31.3463 14.0855 31.3463 13.3705 30.6295C12.6537 29.9127 12.6537 28.7522 13.3705 28.0372C13.651 27.7548 19.4077 22 19.4077 22C19.4077 22 13.6528 16.2452 13.3705 15.9628C12.6537 15.246 12.6537 14.0855 13.3705 13.3705C14.0873 12.6537 15.2478 12.6537 15.9628 13.3705C16.2452 13.651 22 19.4077 22 19.4077C22 19.4077 27.7548 13.6528 28.0372 13.3705C28.754 12.6537 29.9145 12.6537 30.6295 13.3705C31.3463 14.0873 31.3463 15.2478 30.6295 15.9628C30.349 16.2452 24.5923 22 24.5923 22Z" fill="#EF6A82"/>
</svg>
