<svg width="12" height="8" viewBox="0 0 12 8" fill="none" xmlns="http://www.w3.org/2000/svg">
<path d="M6 0C2.43268 0 0.128395 3.68447 0.0867188 3.75156C0.0306214 3.82222 6.06491e-05 3.90978 0 4C7.09613e-05 4.0774 0.022596 4.15312 0.0648438 4.21797C0.0653618 4.21875 0.0658827 4.21953 0.0664062 4.22031C0.0732837 4.2345 2.00753 8 6 8C9.97553 8 11.9069 4.2715 11.9305 4.22578C11.9321 4.22319 11.9336 4.22059 11.9352 4.21797C11.9774 4.15312 11.9999 4.0774 12 4C12 3.91014 11.9697 3.8229 11.9141 3.75234C11.9138 3.75208 11.9135 3.75182 11.9133 3.75156C11.8716 3.68447 9.56732 0 6 0ZM6 1.2C7.5464 1.2 8.8 2.4536 8.8 4C8.8 5.5464 7.5464 6.8 6 6.8C4.4536 6.8 3.2 5.5464 3.2 4C3.2 2.4536 4.4536 1.2 6 1.2ZM6 2.8C5.68174 2.8 5.37652 2.92643 5.15147 3.15147C4.92643 3.37651 4.8 3.68174 4.8 4C4.8 4.31826 4.92643 4.62348 5.15147 4.84853C5.37652 5.07357 5.68174 5.2 6 5.2C6.31826 5.2 6.62348 5.07357 6.84853 4.84853C7.07357 4.62348 7.2 4.31826 7.2 4C7.2 3.68174 7.07357 3.37651 6.84853 3.15147C6.62348 2.92643 6.31826 2.8 6 2.8Z" fill="#2A2A2A"/>
</svg>
