<svg width="40" height="40" viewBox="0 0 40 40" fill="none" xmlns="http://www.w3.org/2000/svg">
<path d="M20 0C8.955 0 0 8.955 0 20C0 31.045 8.955 40 20 40C31.045 40 40 31.045 40 20C40 8.955 31.045 0 20 0ZM20 10C23.6767 10 26.6667 12.99 26.6667 16.6667V18.3333C27.5867 18.3333 28.3333 19.08 28.3333 20V26.6667C28.3333 27.5867 27.5867 28.3333 26.6667 28.3333H13.3333C12.4133 28.3333 11.6667 27.5867 11.6667 26.6667V20C11.6667 19.08 12.4133 18.3333 13.3333 18.3333V16.6667C13.3333 12.99 16.3233 10 20 10ZM20 13.3333C18.1617 13.3333 16.6667 14.8283 16.6667 16.6667V18.3333H23.3333V16.6667C23.3333 14.8283 21.8383 13.3333 20 13.3333Z" fill="#2A2A2A"/>
</svg>
