<svg width="48" height="48" viewBox="0 0 48 48" fill="none" xmlns="http://www.w3.org/2000/svg">
<path d="M40.1968 0C39.7333 0 39.2888 0.187301 38.961 0.520699C38.6333 0.854097 38.4492 1.30628 38.4492 1.77778C38.4492 2.24927 38.6333 2.70146 38.961 3.03486C39.2888 3.36825 39.7333 3.55556 40.1968 3.55556C40.6604 3.55556 41.1049 3.36825 41.4326 3.03486C41.7604 2.70146 41.9445 2.24927 41.9445 1.77778C41.9445 1.30628 41.7604 0.854097 41.4326 0.520699C41.1049 0.187301 40.6604 0 40.1968 0ZM34.1414 3.55556C33.6779 3.55556 33.2333 3.74286 32.9056 4.07625C32.5778 4.40965 32.3937 4.86184 32.3937 5.33333C32.3937 5.80483 32.5778 6.25701 32.9056 6.59041C33.2333 6.92381 33.6779 7.11111 34.1414 7.11111C34.6049 7.11111 35.0494 6.92381 35.3772 6.59041C35.7049 6.25701 35.8891 5.80483 35.8891 5.33333C35.8891 4.86184 35.7049 4.40965 35.3772 4.07625C35.0494 3.74286 34.6049 3.55556 34.1414 3.55556ZM46.2523 3.55556C45.7888 3.55556 45.3443 3.74286 45.0165 4.07625C44.6888 4.40965 44.5046 4.86184 44.5046 5.33333C44.5046 5.80483 44.6888 6.25701 45.0165 6.59041C45.3443 6.92381 45.7888 7.11111 46.2523 7.11111C46.7158 7.11111 47.1604 6.92381 47.4881 6.59041C47.8159 6.25701 48 5.80483 48 5.33333C48 4.86184 47.8159 4.40965 47.4881 4.07625C47.1604 3.74286 46.7158 3.55556 46.2523 3.55556ZM40.1968 5.33333C39.2698 5.33333 38.3807 5.70794 37.7252 6.37473C37.0697 7.04153 36.7015 7.9459 36.7015 8.88889C36.7015 9.83188 37.0697 10.7363 37.7252 11.403C38.3807 12.0698 39.2698 12.4444 40.1968 12.4444C41.1239 12.4444 42.0129 12.0698 42.6684 11.403C43.324 10.7363 43.6922 9.83188 43.6922 8.88889C43.6922 7.9459 43.324 7.04153 42.6684 6.37473C42.0129 5.70794 41.1239 5.33333 40.1968 5.33333ZM34.1414 10.6667C33.6779 10.6667 33.2333 10.854 32.9056 11.1874C32.5778 11.5208 32.3937 11.9729 32.3937 12.4444C32.3937 12.9159 32.5778 13.3681 32.9056 13.7015C33.2333 14.0349 33.6779 14.2222 34.1414 14.2222C34.6049 14.2222 35.0494 14.0349 35.3772 13.7015C35.7049 13.3681 35.8891 12.9159 35.8891 12.4444C35.8891 11.9729 35.7049 11.5208 35.3772 11.1874C35.0494 10.854 34.6049 10.6667 34.1414 10.6667ZM46.2523 10.6667C45.7888 10.6667 45.3443 10.854 45.0165 11.1874C44.6888 11.5208 44.5046 11.9729 44.5046 12.4444C44.5046 12.9159 44.6888 13.3681 45.0165 13.7015C45.3443 14.0349 45.7888 14.2222 46.2523 14.2222C46.7158 14.2222 47.1604 14.0349 47.4881 13.7015C47.8159 13.3681 48 12.9159 48 12.4444C48 11.9729 47.8159 11.5208 47.4881 11.1874C47.1604 10.854 46.7158 10.6667 46.2523 10.6667ZM40.1968 14.2222C39.7333 14.2222 39.2888 14.4095 38.961 14.7429C38.6333 15.0763 38.4492 15.5285 38.4492 16C38.4492 16.4715 38.6333 16.9237 38.961 17.2571C39.2888 17.5905 39.7333 17.7778 40.1968 17.7778C40.6604 17.7778 41.1049 17.5905 41.4326 17.2571C41.7604 16.9237 41.9445 16.4715 41.9445 16C41.9445 15.5285 41.7604 15.0763 41.4326 14.7429C41.1049 14.4095 40.6604 14.2222 40.1968 14.2222ZM17.4769 17.7778C16.8012 17.7782 16.1402 17.9779 15.5738 18.3526C15.0073 18.7272 14.5598 19.2609 14.2853 19.8889H14.2819L0 48H46.5561L36.4011 25.2222H36.3943C36.12 24.5947 35.673 24.0615 35.1072 23.6868C34.5415 23.3122 33.8812 23.1122 33.2061 23.1111C32.3639 23.1126 31.5506 23.4233 30.9157 23.9861L30.9122 23.9826L27.9528 26.4757L30.2432 30.9826C30.6871 31.8538 30.3504 32.9269 29.4922 33.3785C29.2371 33.5118 28.9626 33.5764 28.6935 33.5764C28.0608 33.5764 27.4481 33.2261 27.137 32.6146L20.6719 19.8889H20.6651C20.3908 19.2614 19.9438 18.7281 19.378 18.3535C18.8123 17.9789 18.152 17.7789 17.4769 17.7778Z" fill="#2A2A2A"/>
</svg>
