<svg width="56" height="56" viewBox="0 0 56 56" fill="none" xmlns="http://www.w3.org/2000/svg">
<g filter="url(#filter0_d)">
<path fill-rule="evenodd" clip-rule="evenodd" d="M28 48C39.0457 48 48 39.0457 48 28C48 16.9543 39.0457 8 28 8C16.9543 8 8 16.9543 8 28C8 39.0457 16.9543 48 28 48ZM18.4888 26.8216L25.1554 20.155C25.4804 19.83 25.9071 19.6666 26.3337 19.6666C26.7604 19.6666 27.1871 19.83 27.5121 20.155C28.1637 20.8066 28.1637 21.86 27.5121 22.5116L23.6904 26.3333H36.3337C37.2537 26.3333 38.0004 27.0783 38.0004 28C38.0004 28.9216 37.2537 29.6666 36.3337 29.6666H23.6904L27.5121 33.4883C28.1637 34.14 28.1637 35.1933 27.5121 35.845C26.8604 36.4966 25.8071 36.4966 25.1554 35.845L18.4888 29.1783C17.8371 28.5266 17.8371 27.4733 18.4888 26.8216Z" fill="white" fill-opacity="0.75"/>
</g>
<defs>
<filter id="filter0_d" x="0" y="0" width="56" height="56" filterUnits="userSpaceOnUse" color-interpolation-filters="sRGB">
<feFlood flood-opacity="0" result="BackgroundImageFix"/>
<feColorMatrix in="SourceAlpha" type="matrix" values="0 0 0 0 0 0 0 0 0 0 0 0 0 0 0 0 0 0 127 0"/>
<feOffset/>
<feGaussianBlur stdDeviation="4"/>
<feColorMatrix type="matrix" values="0 0 0 0 0 0 0 0 0 0 0 0 0 0 0 0 0 0 0.25 0"/>
<feBlend mode="normal" in2="BackgroundImageFix" result="effect1_dropShadow"/>
<feBlend mode="normal" in="SourceGraphic" in2="effect1_dropShadow" result="shape"/>
</filter>
</defs>
</svg>
