<svg width="56" height="56" viewBox="0 0 56 56" fill="none" xmlns="http://www.w3.org/2000/svg">
<g filter="url(#filter0_d)">
<path fill-rule="evenodd" clip-rule="evenodd" d="M28 8C16.9543 8 8 16.9543 8 28C8 39.0457 16.9543 48 28 48C39.0457 48 48 39.0457 48 28C48 16.9543 39.0457 8 28 8ZM37.5112 29.1784L30.8446 35.845C30.5196 36.17 30.0929 36.3334 29.6663 36.3334C29.2396 36.3334 28.8129 36.17 28.4879 35.845C27.8363 35.1934 27.8363 34.14 28.4879 33.4884L32.3096 29.6667H19.6663C18.7463 29.6667 17.9996 28.9217 17.9996 28C17.9996 27.0784 18.7463 26.3334 19.6663 26.3334H32.3096L28.4879 22.5117C27.8363 21.86 27.8363 20.8067 28.4879 20.155C29.1396 19.5034 30.1929 19.5034 30.8446 20.155L37.5112 26.8217C38.1629 27.4734 38.1629 28.5267 37.5112 29.1784Z" fill="white" fill-opacity="0.75"/>
</g>
<defs>
<filter id="filter0_d" x="0" y="0" width="56" height="56" filterUnits="userSpaceOnUse" color-interpolation-filters="sRGB">
<feFlood flood-opacity="0" result="BackgroundImageFix"/>
<feColorMatrix in="SourceAlpha" type="matrix" values="0 0 0 0 0 0 0 0 0 0 0 0 0 0 0 0 0 0 127 0"/>
<feOffset/>
<feGaussianBlur stdDeviation="4"/>
<feColorMatrix type="matrix" values="0 0 0 0 0 0 0 0 0 0 0 0 0 0 0 0 0 0 0.25 0"/>
<feBlend mode="normal" in2="BackgroundImageFix" result="effect1_dropShadow"/>
<feBlend mode="normal" in="SourceGraphic" in2="effect1_dropShadow" result="shape"/>
</filter>
</defs>
</svg>
