<svg width="168" height="112" viewBox="0 0 168 112" fill="none" xmlns="http://www.w3.org/2000/svg">
<path d="M100.197 32C99.7333 32 99.2888 32.1873 98.961 32.5207C98.6333 32.8541 98.4492 33.3063 98.4492 33.7778C98.4492 34.2493 98.6333 34.7015 98.961 35.0349C99.2888 35.3683 99.7333 35.5556 100.197 35.5556C100.66 35.5556 101.105 35.3683 101.433 35.0349C101.76 34.7015 101.945 34.2493 101.945 33.7778C101.945 33.3063 101.76 32.8541 101.433 32.5207C101.105 32.1873 100.66 32 100.197 32ZM94.1414 35.5556C93.6779 35.5556 93.2333 35.7429 92.9056 36.0763C92.5778 36.4097 92.3937 36.8618 92.3937 37.3333C92.3937 37.8048 92.5778 38.257 92.9056 38.5904C93.2333 38.9238 93.6779 39.1111 94.1414 39.1111C94.6049 39.1111 95.0494 38.9238 95.3772 38.5904C95.7049 38.257 95.8891 37.8048 95.8891 37.3333C95.8891 36.8618 95.7049 36.4097 95.3772 36.0763C95.0494 35.7429 94.6049 35.5556 94.1414 35.5556ZM106.252 35.5556C105.789 35.5556 105.344 35.7429 105.017 36.0763C104.689 36.4097 104.505 36.8618 104.505 37.3333C104.505 37.8048 104.689 38.257 105.017 38.5904C105.344 38.9238 105.789 39.1111 106.252 39.1111C106.716 39.1111 107.16 38.9238 107.488 38.5904C107.816 38.257 108 37.8048 108 37.3333C108 36.8618 107.816 36.4097 107.488 36.0763C107.16 35.7429 106.716 35.5556 106.252 35.5556ZM100.197 37.3333C99.2698 37.3333 98.3807 37.7079 97.7252 38.3747C97.0697 39.0415 96.7015 39.9459 96.7015 40.8889C96.7015 41.8319 97.0697 42.7363 97.7252 43.403C98.3807 44.0698 99.2698 44.4444 100.197 44.4444C101.124 44.4444 102.013 44.0698 102.668 43.403C103.324 42.7363 103.692 41.8319 103.692 40.8889C103.692 39.9459 103.324 39.0415 102.668 38.3747C102.013 37.7079 101.124 37.3333 100.197 37.3333ZM94.1414 42.6667C93.6779 42.6667 93.2333 42.854 92.9056 43.1874C92.5778 43.5208 92.3937 43.9729 92.3937 44.4444C92.3937 44.9159 92.5778 45.3681 92.9056 45.7015C93.2333 46.0349 93.6779 46.2222 94.1414 46.2222C94.6049 46.2222 95.0494 46.0349 95.3772 45.7015C95.7049 45.3681 95.8891 44.9159 95.8891 44.4444C95.8891 43.9729 95.7049 43.5208 95.3772 43.1874C95.0494 42.854 94.6049 42.6667 94.1414 42.6667ZM106.252 42.6667C105.789 42.6667 105.344 42.854 105.017 43.1874C104.689 43.5208 104.505 43.9729 104.505 44.4444C104.505 44.9159 104.689 45.3681 105.017 45.7015C105.344 46.0349 105.789 46.2222 106.252 46.2222C106.716 46.2222 107.16 46.0349 107.488 45.7015C107.816 45.3681 108 44.9159 108 44.4444C108 43.9729 107.816 43.5208 107.488 43.1874C107.16 42.854 106.716 42.6667 106.252 42.6667ZM100.197 46.2222C99.7333 46.2222 99.2888 46.4095 98.961 46.7429C98.6333 47.0763 98.4492 47.5285 98.4492 48C98.4492 48.4715 98.6333 48.9237 98.961 49.2571C99.2888 49.5905 99.7333 49.7778 100.197 49.7778C100.66 49.7778 101.105 49.5905 101.433 49.2571C101.76 48.9237 101.945 48.4715 101.945 48C101.945 47.5285 101.76 47.0763 101.433 46.7429C101.105 46.4095 100.66 46.2222 100.197 46.2222ZM77.4769 49.7778C76.8012 49.7782 76.1402 49.9779 75.5738 50.3526C75.0073 50.7272 74.5598 51.2609 74.2853 51.8889H74.2819L60 80H106.556L96.4011 57.2222H96.3943C96.12 56.5947 95.673 56.0615 95.1072 55.6868C94.5415 55.3122 93.8812 55.1122 93.2061 55.1111C92.3639 55.1126 91.5506 55.4233 90.9157 55.9861L90.9122 55.9826L87.9528 58.4757L90.2432 62.9826C90.6871 63.8538 90.3504 64.9269 89.4922 65.3785C89.2371 65.5118 88.9626 65.5764 88.6935 65.5764C88.0608 65.5764 87.4481 65.2261 87.137 64.6146L80.6719 51.8889H80.6651C80.3908 51.2614 79.9438 50.7281 79.378 50.3535C78.8123 49.9789 78.152 49.7789 77.4769 49.7778Z" fill="#888893"/>
</svg>
