<svg width="18" height="18" viewBox="0 0 18 18" fill="none" xmlns="http://www.w3.org/2000/svg">
<path d="M9 0C4.02975 0 0 4.02975 0 9C0 13.9702 4.02975 18 9 18C13.9702 18 18 13.9702 18 9C18 4.02975 13.9702 0 9 0ZM13.5 9.75H9.75V13.5C9.75 13.9147 9.414 14.25 9 14.25C8.586 14.25 8.25 13.9147 8.25 13.5V9.75H4.5C4.086 9.75 3.75 9.41475 3.75 9C3.75 8.58525 4.086 8.25 4.5 8.25H8.25V4.5C8.25 4.08525 8.586 3.75 9 3.75C9.414 3.75 9.75 4.08525 9.75 4.5V8.25H13.5C13.914 8.25 14.25 8.58525 14.25 9C14.25 9.41475 13.914 9.75 13.5 9.75Z" fill="#B7B7BD"/>
</svg>
