<svg width="16" height="16" viewBox="0 0 16 16" fill="none" xmlns="http://www.w3.org/2000/svg">
<path d="M14.0001 0.666626H2.00008C1.26341 0.666626 0.666748 1.26329 0.666748 1.99996V14C0.666748 14.7366 1.26341 15.3333 2.00008 15.3333H14.0001C14.7367 15.3333 15.3334 14.7366 15.3334 14V1.99996C15.3334 1.26329 14.7367 0.666626 14.0001 0.666626ZM5.33341 8.66663H4.00008V9.28396C4.00008 9.60263 3.61475 9.76263 3.38875 9.53729L2.10475 8.25329C1.96475 8.11329 1.96475 7.88663 2.10475 7.74663L3.38875 6.46263C3.61475 6.23729 4.00008 6.39729 4.00008 6.71596V7.33329H5.33341C5.70141 7.33329 6.00008 7.63129 6.00008 7.99996C6.00008 8.36863 5.70141 8.66663 5.33341 8.66663ZM9.53741 12.6113L8.25341 13.8953C8.11341 14.0353 7.88675 14.0353 7.74675 13.8953L6.46275 12.6113C6.23741 12.3853 6.39741 12 6.71608 12H7.33341V10.6666C7.33341 10.298 7.63208 9.99996 8.00008 9.99996C8.36808 9.99996 8.66675 10.298 8.66675 10.6666V12H9.28408C9.60275 12 9.76275 12.3853 9.53741 12.6113ZM9.28408 3.99996H8.66675V5.33329C8.66675 5.70196 8.36808 5.99996 8.00008 5.99996C7.63208 5.99996 7.33341 5.70196 7.33341 5.33329V3.99996H6.71608C6.39675 3.99996 6.23741 3.61396 6.46275 3.38863L7.74675 2.10463C7.88675 1.96463 8.11341 1.96463 8.25341 2.10463L9.53741 3.38863C9.76275 3.61396 9.60275 3.99996 9.28408 3.99996ZM13.8954 8.25329L12.6114 9.53729C12.3854 9.76263 12.0001 9.60263 12.0001 9.28396V8.66663H10.6667C10.2987 8.66663 10.0001 8.36863 10.0001 7.99996C10.0001 7.63129 10.2987 7.33329 10.6667 7.33329H12.0001V6.71596C12.0001 6.39663 12.3854 6.23729 12.6114 6.46263L13.8954 7.74663C14.0347 7.88663 14.0347 8.11329 13.8954 8.25329Z" fill="#1F687E"/>
</svg>
