<svg width="16" height="16" viewBox="0 0 16 16" fill="none" xmlns="http://www.w3.org/2000/svg">
<path d="M8.88889 0.880249C8.73363 0.880249 8.5945 0.943351 8.48843 1.04113L5.56944 3.43002C5.3172 3.31777 5.04113 3.25062 4.74074 3.25062C4.14545 3.25062 3.63567 3.51438 3.22222 3.87678C3.13506 3.86553 3.05804 3.84321 2.96296 3.84321C1.8009 3.84321 0.862582 4.70626 0.666667 5.81312C0.274935 6.23328 0 6.77574 0 7.39877C0 7.84066 0.154867 8.23223 0.365741 8.58395C0.154867 8.93567 0 9.32725 0 9.76914C0 10.7331 0.625726 11.5013 1.45602 11.8687C1.82344 12.699 2.59159 13.3247 3.55556 13.3247C3.76544 13.3247 3.96062 13.2836 4.14815 13.2252V14.5099C4.14704 14.5884 4.16155 14.6664 4.19083 14.7392C4.22011 14.8121 4.26358 14.8784 4.31872 14.9344C4.37386 14.9903 4.43956 15.0347 4.51201 15.065C4.58446 15.0953 4.66221 15.1109 4.74074 15.1109C4.81927 15.1109 4.89702 15.0953 4.96947 15.065C5.04192 15.0347 5.10762 14.9903 5.16276 14.9344C5.2179 14.8784 5.26137 14.8121 5.29065 14.7392C5.31994 14.6664 5.33444 14.5884 5.33333 14.5099V12.7321C5.33375 12.6794 5.32714 12.6268 5.31366 12.5759C5.50953 12.6492 5.70034 12.7321 5.92593 12.7321C6.13242 12.7321 6.32844 12.6961 6.51852 12.6453V15.1025H13.6296C14.2844 15.1025 14.8148 14.5721 14.8148 13.9173V7.39877H15.4074C15.7345 7.39877 16 7.13329 16 6.80618C16 6.63492 15.9257 6.48347 15.8102 6.37562L14.8148 5.5608V3.25062C14.8148 2.92351 14.5493 2.65803 14.2222 2.65803H13.6296C13.3025 2.65803 13.037 2.92351 13.037 3.25062V4.1071L9.28935 1.04113C9.18328 0.943351 9.04415 0.880249 8.88889 0.880249ZM4.74074 4.4358C5.26269 4.4358 5.69115 4.76946 5.85301 5.23442L6.00232 5.66034L6.45255 5.63025C6.55482 5.62343 6.57304 5.62099 6.51852 5.62099C7.18025 5.62099 7.7037 6.14445 7.7037 6.80618C7.7037 6.89002 7.69032 6.98085 7.66551 7.0828L7.5787 7.44159L7.86343 7.67886C8.13032 7.9006 8.2963 8.21708 8.2963 8.58395C8.2963 9.1059 7.96265 9.53436 7.49769 9.69622L7.07176 9.84553L7.10185 10.2958C7.10867 10.398 7.11111 10.4163 7.11111 10.3617C7.11111 11.0235 6.58765 11.5469 5.92593 11.5469C5.72026 11.5469 5.52886 11.4901 5.34722 11.3872L4.85648 11.1094L4.5544 11.5851C4.3426 11.9191 3.98014 12.1395 3.55556 12.1395C3.01567 12.1395 2.57599 11.784 2.42824 11.2934L2.33681 10.9879L2.03125 10.8965C1.54073 10.7487 1.18519 10.309 1.18519 9.76914C1.18519 9.46518 1.3 9.19664 1.49421 8.98094L1.85185 8.58395L1.49421 8.18696C1.3 7.97126 1.18519 7.70273 1.18519 7.39877C1.18519 7.04461 1.34033 6.73619 1.59144 6.51451L1.77083 6.35594L1.79051 6.11752C1.84032 5.50345 2.33568 5.0284 2.96296 5.0284C3.04681 5.0284 3.13764 5.04178 3.23958 5.06659L3.59838 5.1534L3.83565 4.86867C4.05739 4.60177 4.37387 4.4358 4.74074 4.4358ZM10.6667 9.76914H13.037V12.1395H10.6667V9.76914Z" fill="#1F687E"/>
</svg>
