<svg width="16" height="16" viewBox="0 0 16 16" fill="none" xmlns="http://www.w3.org/2000/svg">
<path d="M14.0001 0.666626H2.00008C1.26341 0.666626 0.666748 1.26329 0.666748 1.99996V14C0.666748 14.7366 1.26341 15.3333 2.00008 15.3333H14.0001C14.7367 15.3333 15.3334 14.7366 15.3334 14V1.99996C15.3334 1.26329 14.7367 0.666626 14.0001 0.666626ZM13.0281 12H9.07408V11.778L10.0001 10.9633V6.31329L7.72608 12H7.37075L4.83341 6.26863V10.3266L5.99341 11.778V12H2.97208V11.778L4.17141 10.3266V5.49863L3.10541 4.16596C3.10541 4.16596 3.10541 3.97329 3.10541 4.00329H6.02275L8.28875 8.90529L10.2434 4.00329H13.0127V4.16596L12.0001 5.01729V10.9633L13.0281 11.778V12Z" fill="#1F687E"/>
</svg>
