<svg width="16" height="16" viewBox="0 0 16 16" fill="none" xmlns="http://www.w3.org/2000/svg">
<path d="M13.3333 0H9.33326C8.99193 0 8.65059 0.130001 8.39059 0.390671L0.390504 8.39075C-0.130168 8.91143 -0.130168 9.75543 0.390504 10.2761L5.72389 15.6095C6.24457 16.1302 7.08857 16.1302 7.60925 15.6095C7.86991 15.3488 15.3487 7.87008 15.6093 7.60941C15.87 7.34941 16 7.00807 16 6.66674V2.66669C16 1.19401 14.806 0 13.3333 0ZM13.3333 4.00004C12.5966 4.00004 12 3.40337 12 2.66669C12 1.93002 12.5966 1.33335 13.3333 1.33335C14.07 1.33335 14.6667 1.93002 14.6667 2.66669C14.6667 3.40337 14.07 4.00004 13.3333 4.00004Z" fill="#1F687E"/>
</svg>
