<svg width="14" height="16" viewBox="0 0 14 16" fill="none" xmlns="http://www.w3.org/2000/svg">
<path d="M7.00019 0C3.39926 0 0.47998 2.91928 0.47998 6.52021C0.47998 10.8081 4.7193 12.8608 5.2504 13.3386C5.79277 13.8264 6.24088 14.92 6.42167 15.54C6.5094 15.8411 6.75598 15.9935 7.00019 16C7.24499 15.9929 7.49098 15.8406 7.57871 15.54C7.7595 14.92 8.20761 13.827 8.74998 13.3386C9.28108 12.8608 13.5204 10.8081 13.5204 6.52021C13.5204 2.91928 10.6011 0 7.00019 0ZM7.00019 8.29845C6.01801 8.29845 5.22195 7.50239 5.22195 6.52021C5.22195 5.53803 6.01801 4.74197 7.00019 4.74197C7.98237 4.74197 8.77843 5.53803 8.77843 6.52021C8.77843 7.50239 7.98237 8.29845 7.00019 8.29845Z" fill="#1F687E"/>
</svg>
