<svg width="20" height="20" viewBox="0 0 20 20" fill="none" xmlns="http://www.w3.org/2000/svg">
<path d="M3.90237 0.417868C2.91388 0.447654 1.93533 0.836828 1.17886 1.58963C-0.333321 3.09599 -0.38499 5.48672 0.990979 7.0743L6.68751 1.40257C5.89025 0.717575 4.89087 0.388082 3.90237 0.417868ZM16.0981 0.428343C15.1097 0.398557 14.1113 0.728434 13.3144 1.41304L19.0095 7.08328C20.3854 5.49646 20.333 3.1057 18.8201 1.6001C18.0636 0.846921 17.0865 0.45813 16.0981 0.428343ZM10.0047 2.715C5.32966 2.715 1.53959 6.48857 1.53959 11.1433C1.53959 13.3899 2.42859 15.4254 3.8678 16.9362L2.5346 18.2636C2.46075 18.3342 2.40178 18.4188 2.36116 18.5124C2.32054 18.606 2.29908 18.7067 2.29804 18.8086C2.297 18.9105 2.31639 19.0117 2.35509 19.106C2.39379 19.2004 2.45102 19.2862 2.52342 19.3582C2.59582 19.4303 2.68193 19.4873 2.77673 19.5258C2.87152 19.5644 2.97308 19.5837 3.07546 19.5826C3.17784 19.5816 3.27899 19.5602 3.37297 19.5198C3.46696 19.4793 3.5519 19.4206 3.62281 19.3471L5.02665 17.9494C6.4248 18.965 8.14157 19.5716 10.0047 19.5716C11.8679 19.5716 13.5846 18.965 14.9828 17.9494L16.3866 19.3471C16.4576 19.4206 16.5425 19.4793 16.6365 19.5198C16.7305 19.5602 16.8316 19.5816 16.934 19.5826C17.0364 19.5837 17.1379 19.5644 17.2327 19.5258C17.3275 19.4873 17.4136 19.4303 17.486 19.3582C17.5584 19.2862 17.6157 19.2004 17.6544 19.106C17.6931 19.0117 17.7125 18.9105 17.7114 18.8086C17.7104 18.7067 17.6889 18.606 17.6483 18.5124C17.6077 18.4188 17.5487 18.3342 17.4748 18.2636L16.1416 16.9362C17.5809 15.4254 18.4699 13.3899 18.4699 11.1433C18.4699 6.48857 14.6798 2.715 10.0047 2.715ZM10.0002 5.01362H10.0092C10.4317 5.01362 10.7743 5.35393 10.7743 5.77534V11.9095H6.15243C5.72917 11.9095 5.38738 11.5692 5.38738 11.1478V11.1388C5.38738 10.7181 5.72917 10.3771 6.15243 10.3771H9.23517V5.77534C9.23517 5.35393 9.57696 5.01362 10.0002 5.01362Z" fill="#1F687E"/>
</svg>
