<svg width="16" height="16" viewBox="0 0 16 16" fill="none" xmlns="http://www.w3.org/2000/svg">
<path d="M8 0C3.582 0 0 3.582 0 8C0 12.418 3.582 16 8 16C12.418 16 16 12.418 16 8C16 3.582 12.418 0 8 0ZM12.3093 6.35667C12.3133 6.44533 12.3153 6.53333 12.3153 6.62133C12.3153 9.33333 10.252 12.4587 6.478 12.4587C5.31867 12.4587 4.24067 12.1193 3.33333 11.5367C3.494 11.556 3.65733 11.5647 3.82333 11.5647C4.78533 11.5647 5.66933 11.2373 6.37067 10.686C5.47267 10.6693 4.71467 10.076 4.454 9.26133C4.57933 9.28533 4.708 9.298 4.84 9.298C5.02733 9.298 5.20933 9.27267 5.38067 9.226C4.442 9.038 3.73467 8.20867 3.73467 7.21467C3.73467 7.206 3.73467 7.19733 3.73467 7.18867C4.01133 7.34267 4.32733 7.43467 4.664 7.44533C4.114 7.078 3.75133 6.44933 3.75133 5.738C3.75133 5.36133 3.852 5.00867 4.02867 4.70667C5.04067 5.948 6.55267 6.76533 8.25733 6.85067C8.22267 6.70067 8.20467 6.544 8.20467 6.38333C8.20467 5.25067 9.12333 4.33133 10.256 4.33133C10.846 4.33133 11.3793 4.58067 11.7533 4.97933C12.2207 4.88667 12.66 4.71667 13.0567 4.48133C12.9033 4.96067 12.578 5.362 12.154 5.61667C12.5687 5.56733 12.964 5.45733 13.3327 5.294C13.0587 5.706 12.7113 6.06667 12.3093 6.35667Z" fill="#1F687E"/>
</svg>
