<svg width="20" height="20" viewBox="0 0 20 20" fill="none" xmlns="http://www.w3.org/2000/svg">
<path d="M17.322 7.22802C17.3253 7.15202 17.3333 7.07735 17.3333 7.00002C17.3333 4.05469 14.9453 1.66669 12 1.66669C9.92667 1.66669 8.13333 2.85269 7.25133 4.58069C6.864 4.42402 6.44333 4.33335 6 4.33335C4.31333 4.33335 2.934 5.59002 2.712 7.21602C1.13533 7.75269 0 9.24202 0 11C0 13.2094 1.79067 15 4 15H16C18.2093 15 20 13.2094 20 11C20 9.25469 18.8807 7.77469 17.322 7.22802ZM7.52867 9.19535L9.52867 7.19535C9.65867 7.06535 9.82933 7.00002 10 7.00002C10.1707 7.00002 10.3413 7.06535 10.4713 7.19535L12.4713 9.19535C12.732 9.45602 12.732 9.87736 12.4713 10.138C12.2107 10.3987 11.7893 10.3987 11.5287 10.138L10.6667 9.27602V17.6667C10.6667 18.0347 10.3687 18.3334 10 18.3334C9.63133 18.3334 9.33333 18.0347 9.33333 17.6667V9.27602L8.47133 10.138C8.21067 10.3987 7.78933 10.3987 7.52867 10.138C7.268 9.87736 7.268 9.45602 7.52867 9.19535Z" fill="#1F687E"/>
</svg>
