<svg width="44" height="44" viewBox="0 0 44 44" fill="none" xmlns="http://www.w3.org/2000/svg">
<path d="M16 0C13.8139 0 12 1.73501 12 3.82609V9.56522H16V3.82609H26V9.56522H32V3.82609H36V9.56522H40V3.82609C40 1.73501 38.1861 0 36 0H16ZM6 5.73913C2.71006 5.73913 0 8.33136 0 11.4783V38.2609C0 41.4308 2.686 44 6 44H40C42.21 44 44 42.2878 44 40.1739V17.2174C44 15.1035 42.21 13.3913 40 13.3913H24H6C4.86994 13.3913 4 12.5592 4 11.4783C4 10.3973 4.86994 9.56522 6 9.56522H8V5.73913H6ZM36 24.8696C38.21 24.8696 40 26.5817 40 28.6957C40 30.8096 38.21 32.5217 36 32.5217C33.79 32.5217 32 30.8096 32 28.6957C32 26.5817 33.79 24.8696 36 24.8696Z" fill="#2A2A2A"/>
</svg>
