<svg width="16" height="12" viewBox="0 0 16 12" fill="none" xmlns="http://www.w3.org/2000/svg">
<path d="M8 0.666504C3.24358 0.666504 0.171194 5.57913 0.115625 5.66859C0.0408285 5.7628 8.08654e-05 5.87954 0 5.99984C9.4615e-05 6.10304 0.030128 6.20399 0.0864583 6.29046C0.0871491 6.29151 0.0878436 6.29255 0.0885417 6.29359C0.0977116 6.31251 2.67671 11.3332 8 11.3332C13.3007 11.3332 15.8759 6.36183 15.9073 6.30088C15.9094 6.29743 15.9115 6.29396 15.9135 6.29046C15.9699 6.20399 15.9999 6.10304 16 5.99984C16 5.88002 15.9596 5.7637 15.8854 5.66963C15.8851 5.66928 15.8847 5.66893 15.8844 5.66859C15.8288 5.57913 12.7564 0.666504 8 0.666504ZM8 2.2665C10.0619 2.2665 11.7333 3.93797 11.7333 5.99984C11.7333 8.0617 10.0619 9.73317 8 9.73317C5.93813 9.73317 4.26667 8.0617 4.26667 5.99984C4.26667 3.93797 5.93813 2.2665 8 2.2665ZM8 4.39984C7.57565 4.39984 7.16869 4.56841 6.86863 4.86847C6.56857 5.16852 6.4 5.57549 6.4 5.99984C6.4 6.42418 6.56857 6.83115 6.86863 7.13121C7.16869 7.43127 7.57565 7.59984 8 7.59984C8.42435 7.59984 8.83131 7.43127 9.13137 7.13121C9.43143 6.83115 9.6 6.42418 9.6 5.99984C9.6 5.57549 9.43143 5.16852 9.13137 4.86847C8.83131 4.56841 8.42435 4.39984 8 4.39984V4.39984Z" fill="#1F687E"/>
</svg>
