<svg width="16" height="16" viewBox="0 0 16 16" fill="none" xmlns="http://www.w3.org/2000/svg">
<path d="M8 2.66699C3.24358 2.66699 0.171194 7.57962 0.115625 7.66907C0.0408285 7.76329 8.08654e-05 7.88003 0 8.00032C9.4615e-05 8.10352 0.030128 8.20448 0.0864583 8.29095C0.0871491 8.29199 0.0878436 8.29304 0.0885417 8.29407C0.0977116 8.313 2.67671 13.3337 8 13.3337C13.3007 13.3337 15.8759 8.36232 15.9073 8.30137C15.9094 8.29792 15.9115 8.29445 15.9135 8.29095C15.9699 8.20448 15.9999 8.10352 16 8.00032C16 7.88051 15.9596 7.76419 15.8854 7.67012C15.8851 7.66977 15.8847 7.66942 15.8844 7.66907C15.8288 7.57962 12.7564 2.66699 8 2.66699ZM8 4.26699C10.0619 4.26699 11.7333 5.93846 11.7333 8.00032C11.7333 10.0622 10.0619 11.7337 8 11.7337C5.93813 11.7337 4.26667 10.0622 4.26667 8.00032C4.26667 5.93846 5.93813 4.26699 8 4.26699ZM8 6.40032C7.57565 6.40032 7.16869 6.5689 6.86863 6.86895C6.56857 7.16901 6.4 7.57598 6.4 8.00032C6.4 8.42467 6.56857 8.83164 6.86863 9.1317C7.16869 9.43175 7.57565 9.60032 8 9.60032C8.42435 9.60032 8.83131 9.43175 9.13137 9.1317C9.43143 8.83164 9.6 8.42467 9.6 8.00032C9.6 7.57598 9.43143 7.16901 9.13137 6.86895C8.83131 6.5689 8.42435 6.40032 8 6.40032Z" fill="white"/>
</svg>
